<svg width="108" height="101" viewBox="0 0 108 101" fill="none" xmlns="http://www.w3.org/2000/svg">
<circle cx="53.8199" cy="50.2839" r="39" transform="rotate(15 53.8199 50.2839)" fill="#1F1F1F" stroke="#DEDEDE" stroke-width="2"/>
<circle cx="53.8193" cy="50.2839" r="19" transform="rotate(15 53.8193 50.2839)" stroke="#DEDEDE" stroke-width="2"/>
<rect x="14.9419" y="25.3729" width="88" height="28" rx="6" transform="rotate(15 14.9419 25.3729)" fill="#1F1F1F" stroke="#DEDEDE" stroke-width="2"/>
<path d="M22.6721 46.0792L24.9309 37.6493L30.5124 39.1448L30.1187 40.6143L26.3195 39.5963L25.7812 41.605L29.21 42.5237L28.8163 43.9932L25.3875 43.0745L24.4544 46.5567L22.6721 46.0792ZM34.6527 40.2542L32.3939 48.6841L30.6116 48.2066L32.8704 39.7767L34.6527 40.2542ZM44.3291 42.847L42.0704 51.2769L40.5309 50.8644L38.2851 44.576L38.2233 44.5595L36.8017 49.8652L35.0194 49.3876L37.2782 40.9577L38.8423 41.3768L41.0604 47.6534L41.1345 47.6733L42.5551 42.3717L44.3291 42.847ZM48.7431 44.0297L46.4843 52.4596L44.702 51.9821L46.9608 43.5522L48.7431 44.0297ZM55.292 48.383C55.3481 48.0421 55.2759 47.7463 55.0754 47.4956C54.875 47.2448 54.5607 47.0621 54.1326 46.9474C53.8417 46.8694 53.5851 46.8448 53.3627 46.8734C53.1411 46.8993 52.9576 46.9693 52.8124 47.0833C52.6699 47.1981 52.5744 47.346 52.5258 47.5271C52.4799 47.6766 52.4762 47.8167 52.5146 47.9476C52.5558 48.0792 52.6271 48.2028 52.7286 48.3182C52.8307 48.4308 52.9547 48.5391 53.1004 48.6428C53.2469 48.7438 53.4065 48.8395 53.5793 48.93L54.2882 49.314C54.6338 49.4949 54.9419 49.6951 55.2125 49.9146C55.4831 50.1342 55.704 50.3743 55.8754 50.6349C56.0467 50.8955 56.1577 51.1782 56.2084 51.4829C56.2619 51.7884 56.2429 52.1171 56.1515 52.4691C56.0106 52.9843 55.759 53.3963 55.3968 53.7051C55.0382 54.0119 54.5866 54.2042 54.0423 54.2819C53.5015 54.3575 52.888 54.3034 52.202 54.1196C51.5215 53.9373 50.9567 53.6742 50.5076 53.3303C50.0613 52.9872 49.7517 52.5734 49.5786 52.0888C49.409 51.6022 49.3985 51.0538 49.5473 50.4437L51.272 50.9058C51.2155 51.1936 51.2332 51.4513 51.3251 51.6788C51.4206 51.9044 51.5762 52.0976 51.7919 52.2583C52.0111 52.4171 52.2744 52.5376 52.5818 52.6199C52.8836 52.7008 53.1575 52.7271 53.4033 52.6989C53.6518 52.6714 53.8588 52.5959 54.0242 52.4726C54.1896 52.3493 54.2995 52.1861 54.3539 51.983C54.4046 51.7937 54.391 51.6195 54.3131 51.4603C54.2378 51.302 54.1054 51.1488 53.9156 51.0009C53.7285 50.8537 53.4913 50.7019 53.2038 50.5455L52.3477 50.069C51.6833 49.7057 51.1945 49.285 50.8814 48.807C50.5683 48.329 50.4966 47.779 50.6663 47.1568C50.8003 46.6456 51.0556 46.2361 51.4322 45.9282C51.8116 45.621 52.2714 45.4251 52.8117 45.3405C53.352 45.2559 53.9295 45.2959 54.5442 45.4606C55.1699 45.6283 55.6873 45.8816 56.0964 46.2206C56.5083 46.5604 56.7935 46.9559 56.952 47.4072C57.1105 47.8585 57.1266 48.3363 57.0002 48.8407L55.292 48.383ZM57.8643 55.5089L60.1231 47.079L61.9054 47.5566L60.9734 51.0347L64.5915 52.0042L65.5235 48.526L67.3016 49.0025L65.0429 57.4324L63.2647 56.9559L64.1977 53.4737L60.5796 52.5042L59.6466 55.9865L57.8643 55.5089ZM67.6714 58.1367L69.9302 49.7068L75.6105 51.2288L75.2168 52.6983L71.3188 51.6539L70.7805 53.6625L74.3863 54.6287L73.9926 56.0982L70.3868 55.132L69.8475 57.1448L73.7619 58.1937L73.3682 59.6632L67.6714 58.1367ZM78.9162 61.1497L75.9278 60.349L78.1866 51.9191L81.1997 52.7265C82.0476 52.9537 82.7323 53.318 83.2538 53.8195C83.776 54.3182 84.1176 54.9259 84.2785 55.6426C84.4422 56.3599 84.4067 57.1563 84.1722 58.0317C83.9369 58.9098 83.5687 59.6199 83.0675 60.1621C82.5691 60.705 81.966 61.0625 81.2581 61.2346C80.553 61.4074 79.7723 61.3791 78.9162 61.1497ZM78.1193 59.2995L79.2513 59.6028C79.7781 59.744 80.2463 59.7694 80.6558 59.6791C81.0687 59.5868 81.4187 59.3674 81.7057 59.0208C81.9962 58.6721 82.2256 58.1836 82.394 57.5552C82.5609 56.9323 82.6054 56.3986 82.5274 55.9542C82.4522 55.5105 82.2598 55.1472 81.9503 54.8643C81.6408 54.5814 81.2227 54.3694 80.6958 54.2282L79.5597 53.9238L78.1193 59.2995Z" fill="#DEDEDE"/>
<path d="M45.8965 79.8507L43.4922 80.6034C43.4234 80.6185 43.364 80.6162 43.3139 80.5964C43.2642 80.5763 43.2192 80.5443 43.1788 80.5003C43.1383 80.4554 43.1133 80.4007 43.1039 80.3362C43.0945 80.2716 43.1091 80.2078 43.1479 80.1447L44.3496 77.8475L42.9821 75.7159C42.9428 75.6586 42.9232 75.5975 42.9232 75.5325C42.9232 75.4675 42.9424 75.4104 42.9807 75.3611C43.0189 75.3119 43.0623 75.2747 43.1107 75.2494C43.1592 75.2255 43.2183 75.2162 43.288 75.2217L45.7335 75.6425L47.2843 73.5778C47.3275 73.5192 47.3771 73.482 47.4332 73.466C47.4892 73.45 47.5473 73.45 47.6073 73.4661C47.6673 73.4822 47.7177 73.5112 47.7587 73.5532C47.7996 73.5952 47.8238 73.6522 47.8312 73.7243L48.1418 76.2878L50.4695 77.146C50.5331 77.1758 50.5798 77.2136 50.6096 77.2594C50.6395 77.3048 50.6587 77.3586 50.6671 77.4207C50.6752 77.4824 50.6631 77.5414 50.6306 77.5977C50.5981 77.654 50.5506 77.6971 50.4879 77.727L48.2378 78.8894L48.1299 81.4796C48.1329 81.5531 48.1139 81.6155 48.073 81.667C48.0321 81.7185 47.9829 81.7533 47.9255 81.7715C47.8687 81.7903 47.8136 81.7957 47.7603 81.7878C47.7074 81.78 47.6549 81.7523 47.6029 81.7048L45.8965 79.8507Z" fill="#DEDEDE"/>
<path d="M61.4209 79.8693L59.0166 80.6219C58.9479 80.6371 58.8884 80.6347 58.8383 80.6149C58.7887 80.5948 58.7436 80.5628 58.7032 80.5189C58.6627 80.474 58.6377 80.4193 58.6283 80.3547C58.6189 80.2902 58.6336 80.2264 58.6723 80.1633L59.874 77.8661L58.5065 75.7344C58.4672 75.6771 58.4476 75.616 58.4476 75.551C58.4477 75.486 58.4668 75.4289 58.5051 75.3797C58.5433 75.3305 58.5867 75.2932 58.6351 75.268C58.6836 75.244 58.7427 75.2348 58.8124 75.2403L61.2579 75.661L62.8087 73.5963C62.8519 73.5378 62.9015 73.5005 62.9576 73.4845C63.0136 73.4685 63.0717 73.4686 63.1317 73.4847C63.1917 73.5007 63.2422 73.5298 63.2831 73.5718C63.324 73.6137 63.3482 73.6708 63.3556 73.7428L63.6662 76.3063L65.9939 77.1645C66.0575 77.1943 66.1042 77.2321 66.134 77.2779C66.1639 77.3233 66.1831 77.3771 66.1915 77.4393C66.1996 77.5009 66.1875 77.5599 66.155 77.6162C66.1225 77.6725 66.075 77.7156 66.0123 77.7456L63.7622 78.9079L63.6543 81.4982C63.6573 81.5716 63.6383 81.6341 63.5974 81.6856C63.5565 81.7371 63.5073 81.7719 63.4499 81.7901C63.3931 81.8088 63.338 81.8143 63.2847 81.8064C63.2318 81.7985 63.1793 81.7709 63.1273 81.7234L61.4209 79.8693Z" fill="#DEDEDE"/>
<path d="M32.4434 72.1047L30.0391 72.8574C29.9703 72.8725 29.9109 72.8702 29.8608 72.8504C29.8111 72.8303 29.7661 72.7983 29.7257 72.7543C29.6851 72.7094 29.6601 72.6547 29.6507 72.5902C29.6413 72.5256 29.656 72.4618 29.6948 72.3987L30.8965 70.1015L29.529 67.9698C29.4897 67.9126 29.4701 67.8515 29.4701 67.7865C29.4701 67.7215 29.4893 67.6644 29.5275 67.6151C29.5658 67.5659 29.6091 67.5287 29.6576 67.5034C29.7061 67.4795 29.7652 67.4702 29.8349 67.4757L32.2804 67.8965L33.8311 65.8318C33.8743 65.7732 33.924 65.736 33.98 65.72C34.0361 65.704 34.0941 65.704 34.1541 65.7201C34.2142 65.7362 34.2646 65.7652 34.3056 65.8072C34.3465 65.8492 34.3707 65.9062 34.378 65.9783L34.6887 68.5418L37.0163 69.4C37.0799 69.4298 37.1267 69.4676 37.1565 69.5134C37.1864 69.5588 37.2055 69.6126 37.214 69.6747C37.2221 69.7364 37.2099 69.7954 37.1775 69.8517C37.145 69.908 37.0974 69.9511 37.0348 69.981L34.7847 71.1434L34.6768 73.7336C34.6797 73.8071 34.6608 73.8695 34.6199 73.921C34.579 73.9725 34.5298 74.0073 34.4723 74.0255C34.4155 74.0443 34.3605 74.0497 34.3072 74.0418C34.2543 74.034 34.2018 74.0063 34.1498 73.9588L32.4434 72.1047Z" fill="#DEDEDE"/>
<path d="M60.6494 24.7929L58.2451 25.5456C58.1764 25.5607 58.1169 25.5584 58.0668 25.5386C58.0172 25.5185 57.9722 25.4865 57.9318 25.4425C57.8912 25.3976 57.8662 25.3429 57.8568 25.2784C57.8474 25.2138 57.8621 25.15 57.9008 25.0869L59.1025 22.7897L57.735 20.6581C57.6957 20.6008 57.6761 20.5397 57.6761 20.4747C57.6762 20.4097 57.6953 20.3526 57.7336 20.3033C57.7719 20.2541 57.8152 20.2169 57.8636 20.1916C57.9121 20.1677 57.9712 20.1584 58.041 20.1639L60.4864 20.5847L62.0372 18.52C62.0804 18.4614 62.13 18.4242 62.1861 18.4082C62.2421 18.3922 62.3002 18.3922 62.3602 18.4083C62.4202 18.4244 62.4707 18.4534 62.5116 18.4954C62.5525 18.5374 62.5767 18.5944 62.5841 18.6665L62.8948 21.23L65.2224 22.0882C65.286 22.118 65.3327 22.1558 65.3625 22.2016C65.3924 22.247 65.4116 22.3008 65.42 22.3629C65.4282 22.4246 65.416 22.4836 65.3835 22.5399C65.351 22.5962 65.3035 22.6393 65.2408 22.6692L62.9907 23.8316L62.8828 26.4218C62.8858 26.4953 62.8668 26.5577 62.8259 26.6092C62.785 26.6607 62.7359 26.6955 62.6784 26.7137C62.6216 26.7325 62.5665 26.7379 62.5132 26.73C62.4603 26.7222 62.4079 26.6945 62.3559 26.647L60.6494 24.7929Z" fill="#DEDEDE"/>
<path d="M74.1035 32.5389L71.6992 33.2916C71.6305 33.3067 71.571 33.3044 71.5209 33.2846C71.4713 33.2645 71.4263 33.2325 71.3859 33.1885C71.3453 33.1436 71.3203 33.0889 71.3109 33.0244C71.3015 32.9598 71.3162 32.896 71.3549 32.8329L72.5566 30.5357L71.1891 28.4041C71.1499 28.3468 71.1302 28.2857 71.1302 28.2207C71.1303 28.1557 71.1494 28.0986 71.1877 28.0493C71.226 28.0001 71.2693 27.9629 71.3177 27.9376C71.3662 27.9137 71.4253 27.9044 71.4951 27.9099L73.9405 28.3307L75.4913 26.266C75.5345 26.2074 75.5841 26.1702 75.6402 26.1542C75.6962 26.1382 75.7543 26.1382 75.8143 26.1543C75.8743 26.1704 75.9248 26.1994 75.9657 26.2414C76.0066 26.2834 76.0308 26.3404 76.0382 26.4125L76.3489 28.976L78.6765 29.8342C78.7401 29.864 78.7868 29.9018 78.8166 29.9476C78.8465 29.993 78.8657 30.0468 78.8741 30.1089C78.8823 30.1706 78.8701 30.2296 78.8376 30.2859C78.8051 30.3422 78.7576 30.3853 78.6949 30.4152L76.4448 31.5776L76.3369 34.1678C76.3399 34.2413 76.3209 34.3037 76.28 34.3552C76.2391 34.4067 76.19 34.4416 76.1325 34.4597C76.0757 34.4785 76.0206 34.4839 75.9673 34.476C75.9144 34.4682 75.862 34.4405 75.81 34.393L74.1035 32.5389Z" fill="#DEDEDE"/>
<path d="M44.8662 25.7403L42.4619 26.4929C42.3932 26.5081 42.3337 26.5057 42.2836 26.4859C42.234 26.4658 42.189 26.4338 42.1486 26.3899C42.108 26.345 42.083 26.2903 42.0736 26.2257C42.0642 26.1612 42.0789 26.0974 42.1176 26.0343L43.3193 23.7371L41.9518 21.6054C41.9125 21.5482 41.8929 21.487 41.8929 21.422C41.893 21.357 41.9121 21.2999 41.9504 21.2507C41.9886 21.2015 42.032 21.1642 42.0804 21.139C42.1289 21.115 42.188 21.1058 42.2578 21.1113L44.7032 21.532L46.254 19.4673C46.2972 19.4088 46.3468 19.3715 46.4029 19.3555C46.4589 19.3395 46.517 19.3396 46.577 19.3557C46.637 19.3717 46.6875 19.4008 46.7284 19.4428C46.7693 19.4847 46.7935 19.5418 46.8009 19.6139L47.1116 22.1773L49.4392 23.0356C49.5028 23.0653 49.5495 23.1031 49.5793 23.1489C49.6092 23.1943 49.6284 23.2481 49.6368 23.3103C49.645 23.3719 49.6328 23.4309 49.6003 23.4872C49.5678 23.5435 49.5203 23.5866 49.4576 23.6166L47.2075 24.7789L47.0996 27.3692C47.1026 27.4426 47.0836 27.5051 47.0427 27.5566C47.0018 27.6081 46.9527 27.6429 46.8952 27.6611C46.8384 27.6798 46.7833 27.6853 46.73 27.6774C46.6771 27.6696 46.6247 27.6419 46.5727 27.5944L44.8662 25.7403Z" fill="#DEDEDE"/>
</svg>
