<svg width="36" height="36" viewBox="0 0 36 36" fill="none" xmlns="http://www.w3.org/2000/svg">
<path d="M18 0.5C27.665 0.5 35.5 8.33502 35.5 18C35.5 27.665 27.665 35.5 18 35.5C8.33502 35.5 0.5 27.665 0.5 18C0.5 8.33502 8.33502 0.5 18 0.5Z" stroke="#DEDEDE"/>
<path fill-rule="evenodd" clip-rule="evenodd" d="M12.94 19.06C12.6591 18.7787 12.5013 18.3975 12.5013 18C12.5013 17.6025 12.6591 17.2212 12.94 16.94L18.596 11.282C18.8774 11.0007 19.259 10.8428 19.6569 10.8429C19.8539 10.8429 20.0489 10.8818 20.2309 10.9572C20.4129 11.0326 20.5782 11.1432 20.7175 11.2825C20.8568 11.4218 20.9672 11.5872 21.0426 11.7692C21.1179 11.9513 21.1567 12.1463 21.1566 12.3433C21.1566 12.5403 21.1177 12.7354 21.0423 12.9174C20.9669 13.0994 20.8563 13.2647 20.717 13.404L16.122 18L20.718 22.596C20.8613 22.7343 20.9757 22.8998 21.0544 23.0827C21.1331 23.2657 21.1745 23.4625 21.1764 23.6617C21.1782 23.8608 21.1403 24.0584 21.065 24.2428C20.9897 24.4271 20.8784 24.5947 20.7376 24.7356C20.5968 24.8765 20.4294 24.9879 20.2451 25.0634C20.0608 25.1389 19.8633 25.177 19.6641 25.1754C19.4649 25.1737 19.2681 25.1324 19.0851 25.0539C18.902 24.9754 18.7364 24.8612 18.598 24.718L12.938 19.06H12.94Z" fill="#DEDEDE"/>
</svg>
